<svg width="25" height="25" viewBox="0 0 25 25" fill="none" xmlns="http://www.w3.org/2000/svg">
    <mask id="path-1-outside-1_73_83" maskUnits="userSpaceOnUse" x="0.562012" y="3.4873" width="23" height="18">
    <rect fill="white" x="0.562012" y="3.4873" width="23" height="18"></rect>
    <path d="M2.37787 4.55085C2.28022 4.58015 2.08979 4.69733 1.95795 4.81452C1.53315 5.19538 1.56244 4.74616 1.56244 11.0059V16.5284L1.67963 16.7725C1.89447 17.2315 2.24604 17.4268 2.83686 17.4317H3.20795L3.13471 17.7637C2.90522 18.8575 3.52045 19.9415 4.6142 20.3614C5.01459 20.5176 5.70795 20.5176 6.11322 20.3712C6.47943 20.2393 6.88959 19.9659 7.09955 19.712L7.26068 19.5167L7.55854 19.8145C8.44721 20.7276 9.85346 20.7081 10.7958 19.7755C11.3329 19.2432 11.5478 18.6231 11.4404 17.9346C11.4111 17.754 11.372 17.5635 11.3525 17.5147C11.3183 17.4366 11.4794 17.4317 14.2578 17.4317C17.0361 17.4317 17.1972 17.4366 17.163 17.5147C17.08 17.7296 17.0361 18.1641 17.0654 18.4278C17.163 19.3018 17.7441 20.044 18.579 20.3614C18.9697 20.5128 19.624 20.5225 20.0439 20.3858C20.664 20.1856 21.2451 19.629 21.4892 19.0089C21.6064 18.7012 21.6454 18.0372 21.5673 17.6368L21.5234 17.4317H22.0312C22.456 17.4317 22.5732 17.4122 22.7831 17.3145C23.0566 17.1876 23.2617 16.9532 23.3691 16.6651C23.4521 16.421 23.4667 13.7696 23.3837 13.5206C23.2861 13.2325 20.664 9.2237 20.4247 8.99909C20.3076 8.88679 20.1269 8.7696 20.0292 8.7403C19.9218 8.71101 19.0869 8.69147 17.9345 8.69147H16.0156V7.04108V5.39069L15.8886 5.13679C15.8203 4.99519 15.6884 4.82429 15.5956 4.75593C15.2392 4.48249 15.498 4.49226 8.76947 4.49714C4.81928 4.50202 2.49506 4.52155 2.37787 4.55085ZM15.1122 5.39558L15.2343 5.51276V9.88776V14.2579H8.789H2.34369V9.9073C2.34369 6.9239 2.35834 5.52741 2.3974 5.46394C2.4267 5.41022 2.49506 5.34675 2.55365 5.32233C2.61225 5.29792 5.39545 5.27839 8.82807 5.27839L14.9951 5.27351L15.1122 5.39558ZM19.8437 9.50202C19.9121 9.52644 20.5566 10.4883 20.5566 10.5616C20.5566 10.5811 19.9755 10.5958 19.2675 10.5958C18.0126 10.5958 17.9785 10.6007 17.8173 10.7081C17.4999 10.918 17.4804 11.0059 17.4804 12.4317C17.4804 13.6719 17.4853 13.711 17.5927 13.8673C17.6513 13.9551 17.7636 14.0772 17.8369 14.1309C17.9736 14.2335 18.0273 14.2335 20.3173 14.2481L22.6562 14.2628V15.3272C22.6562 16.7335 22.7148 16.6505 21.748 16.6505H21.04L20.7861 16.4503C20.2734 16.0401 19.6142 15.8594 19.0136 15.9571C18.6328 16.0206 18.1445 16.2403 17.8515 16.4796L17.6415 16.6505H16.8261H16.0156V13.0616V9.47272H17.8906C18.9208 9.47272 19.7997 9.48737 19.8437 9.50202ZM21.7285 12.3194C22.0605 12.8321 22.3632 13.3057 22.4023 13.3643L22.4706 13.4766H20.3662H18.2617V12.4268V11.377H19.6923H21.1181L21.7285 12.3194ZM15.2343 15.8448V16.6505H13.0663H10.8935L10.5761 16.4112C9.62885 15.6934 8.38861 15.7716 7.55854 16.6016L7.27533 16.8848L6.99213 16.6114C6.64545 16.2696 6.289 16.0841 5.77631 15.9815C5.41986 15.9034 5.35639 15.9034 4.99506 15.9766C4.55561 16.0645 4.17963 16.2354 3.87201 16.4844L3.67182 16.6505H3.11029C2.55854 16.6505 2.54389 16.6456 2.44623 16.5235C2.35346 16.4063 2.34369 16.3282 2.34369 15.7178V15.0391H8.789H15.2343V15.8448ZM6.02533 16.8653C6.54779 17.1192 6.85053 17.6026 6.85541 18.1934C6.85541 18.4864 6.83588 18.5841 6.69916 18.8624C6.43061 19.4044 5.98139 19.6925 5.39545 19.6973C4.79486 19.7022 4.31147 19.4092 4.04779 18.8721C3.53998 17.837 4.32123 16.6407 5.45893 16.7188C5.65424 16.7286 5.85443 16.7823 6.02533 16.8653ZM9.83393 16.8653C10.3417 17.1143 10.6542 17.627 10.6494 18.213C10.6494 18.8184 10.3613 19.2774 9.82416 19.5411C9.54584 19.6778 9.44818 19.7022 9.15521 19.6973C7.98822 19.6876 7.27533 18.3546 7.92475 17.3975C8.36908 16.7481 9.15033 16.5284 9.83393 16.8653ZM19.9902 16.8653C20.6396 17.1827 20.9716 17.9102 20.7763 18.5841C20.5761 19.2725 20.0244 19.7022 19.3359 19.7022C19.0722 19.7022 18.9599 19.6729 18.6913 19.5411C17.8369 19.1212 17.5927 18.086 18.164 17.2852C18.5497 16.7432 19.3603 16.5577 19.9902 16.8653Z"></path>
    </mask>
    <path d="M2.37787 4.55085C2.28022 4.58015 2.08979 4.69733 1.95795 4.81452C1.53315 5.19538 1.56244 4.74616 1.56244 11.0059V16.5284L1.67963 16.7725C1.89447 17.2315 2.24604 17.4268 2.83686 17.4317H3.20795L3.13471 17.7637C2.90522 18.8575 3.52045 19.9415 4.6142 20.3614C5.01459 20.5176 5.70795 20.5176 6.11322 20.3712C6.47943 20.2393 6.88959 19.9659 7.09955 19.712L7.26068 19.5167L7.55854 19.8145C8.44721 20.7276 9.85346 20.7081 10.7958 19.7755C11.3329 19.2432 11.5478 18.6231 11.4404 17.9346C11.4111 17.754 11.372 17.5635 11.3525 17.5147C11.3183 17.4366 11.4794 17.4317 14.2578 17.4317C17.0361 17.4317 17.1972 17.4366 17.163 17.5147C17.08 17.7296 17.0361 18.1641 17.0654 18.4278C17.163 19.3018 17.7441 20.044 18.579 20.3614C18.9697 20.5128 19.624 20.5225 20.0439 20.3858C20.664 20.1856 21.2451 19.629 21.4892 19.0089C21.6064 18.7012 21.6454 18.0372 21.5673 17.6368L21.5234 17.4317H22.0312C22.456 17.4317 22.5732 17.4122 22.7831 17.3145C23.0566 17.1876 23.2617 16.9532 23.3691 16.6651C23.4521 16.421 23.4667 13.7696 23.3837 13.5206C23.2861 13.2325 20.664 9.2237 20.4247 8.99909C20.3076 8.88679 20.1269 8.7696 20.0292 8.7403C19.9218 8.71101 19.0869 8.69147 17.9345 8.69147H16.0156V7.04108V5.39069L15.8886 5.13679C15.8203 4.99519 15.6884 4.82429 15.5956 4.75593C15.2392 4.48249 15.498 4.49226 8.76947 4.49714C4.81928 4.50202 2.49506 4.52155 2.37787 4.55085ZM15.1122 5.39558L15.2343 5.51276V9.88776V14.2579H8.789H2.34369V9.9073C2.34369 6.9239 2.35834 5.52741 2.3974 5.46394C2.4267 5.41022 2.49506 5.34675 2.55365 5.32233C2.61225 5.29792 5.39545 5.27839 8.82807 5.27839L14.9951 5.27351L15.1122 5.39558ZM19.8437 9.50202C19.9121 9.52644 20.5566 10.4883 20.5566 10.5616C20.5566 10.5811 19.9755 10.5958 19.2675 10.5958C18.0126 10.5958 17.9785 10.6007 17.8173 10.7081C17.4999 10.918 17.4804 11.0059 17.4804 12.4317C17.4804 13.6719 17.4853 13.711 17.5927 13.8673C17.6513 13.9551 17.7636 14.0772 17.8369 14.1309C17.9736 14.2335 18.0273 14.2335 20.3173 14.2481L22.6562 14.2628V15.3272C22.6562 16.7335 22.7148 16.6505 21.748 16.6505H21.04L20.7861 16.4503C20.2734 16.0401 19.6142 15.8594 19.0136 15.9571C18.6328 16.0206 18.1445 16.2403 17.8515 16.4796L17.6415 16.6505H16.8261H16.0156V13.0616V9.47272H17.8906C18.9208 9.47272 19.7997 9.48737 19.8437 9.50202ZM21.7285 12.3194C22.0605 12.8321 22.3632 13.3057 22.4023 13.3643L22.4706 13.4766H20.3662H18.2617V12.4268V11.377H19.6923H21.1181L21.7285 12.3194ZM15.2343 15.8448V16.6505H13.0663H10.8935L10.5761 16.4112C9.62885 15.6934 8.38861 15.7716 7.55854 16.6016L7.27533 16.8848L6.99213 16.6114C6.64545 16.2696 6.289 16.0841 5.77631 15.9815C5.41986 15.9034 5.35639 15.9034 4.99506 15.9766C4.55561 16.0645 4.17963 16.2354 3.87201 16.4844L3.67182 16.6505H3.11029C2.55854 16.6505 2.54389 16.6456 2.44623 16.5235C2.35346 16.4063 2.34369 16.3282 2.34369 15.7178V15.0391H8.789H15.2343V15.8448ZM6.02533 16.8653C6.54779 17.1192 6.85053 17.6026 6.85541 18.1934C6.85541 18.4864 6.83588 18.5841 6.69916 18.8624C6.43061 19.4044 5.98139 19.6925 5.39545 19.6973C4.79486 19.7022 4.31147 19.4092 4.04779 18.8721C3.53998 17.837 4.32123 16.6407 5.45893 16.7188C5.65424 16.7286 5.85443 16.7823 6.02533 16.8653ZM9.83393 16.8653C10.3417 17.1143 10.6542 17.627 10.6494 18.213C10.6494 18.8184 10.3613 19.2774 9.82416 19.5411C9.54584 19.6778 9.44818 19.7022 9.15521 19.6973C7.98822 19.6876 7.27533 18.3546 7.92475 17.3975C8.36908 16.7481 9.15033 16.5284 9.83393 16.8653ZM19.9902 16.8653C20.6396 17.1827 20.9716 17.9102 20.7763 18.5841C20.5761 19.2725 20.0244 19.7022 19.3359 19.7022C19.0722 19.7022 18.9599 19.6729 18.6913 19.5411C17.8369 19.1212 17.5927 18.086 18.164 17.2852C18.5497 16.7432 19.3603 16.5577 19.9902 16.8653Z"></path>
    <path d="M2.37787 4.55085C2.28022 4.58015 2.08979 4.69733 1.95795 4.81452C1.53315 5.19538 1.56244 4.74616 1.56244 11.0059V16.5284L1.67963 16.7725C1.89447 17.2315 2.24604 17.4268 2.83686 17.4317H3.20795L3.13471 17.7637C2.90522 18.8575 3.52045 19.9415 4.6142 20.3614C5.01459 20.5176 5.70795 20.5176 6.11322 20.3712C6.47943 20.2393 6.88959 19.9659 7.09955 19.712L7.26068 19.5167L7.55854 19.8145C8.44721 20.7276 9.85346 20.7081 10.7958 19.7755C11.3329 19.2432 11.5478 18.6231 11.4404 17.9346C11.4111 17.754 11.372 17.5635 11.3525 17.5147C11.3183 17.4366 11.4794 17.4317 14.2578 17.4317C17.0361 17.4317 17.1972 17.4366 17.163 17.5147C17.08 17.7296 17.0361 18.1641 17.0654 18.4278C17.163 19.3018 17.7441 20.044 18.579 20.3614C18.9697 20.5128 19.624 20.5225 20.0439 20.3858C20.664 20.1856 21.2451 19.629 21.4892 19.0089C21.6064 18.7012 21.6454 18.0372 21.5673 17.6368L21.5234 17.4317H22.0312C22.456 17.4317 22.5732 17.4122 22.7831 17.3145C23.0566 17.1876 23.2617 16.9532 23.3691 16.6651C23.4521 16.421 23.4667 13.7696 23.3837 13.5206C23.2861 13.2325 20.664 9.2237 20.4247 8.99909C20.3076 8.88679 20.1269 8.7696 20.0292 8.7403C19.9218 8.71101 19.0869 8.69147 17.9345 8.69147H16.0156V7.04108V5.39069L15.8886 5.13679C15.8203 4.99519 15.6884 4.82429 15.5956 4.75593C15.2392 4.48249 15.498 4.49226 8.76947 4.49714C4.81928 4.50202 2.49506 4.52155 2.37787 4.55085ZM15.1122 5.39558L15.2343 5.51276V9.88776V14.2579H8.789H2.34369V9.9073C2.34369 6.9239 2.35834 5.52741 2.3974 5.46394C2.4267 5.41022 2.49506 5.34675 2.55365 5.32233C2.61225 5.29792 5.39545 5.27839 8.82807 5.27839L14.9951 5.27351L15.1122 5.39558ZM19.8437 9.50202C19.9121 9.52644 20.5566 10.4883 20.5566 10.5616C20.5566 10.5811 19.9755 10.5958 19.2675 10.5958C18.0126 10.5958 17.9785 10.6007 17.8173 10.7081C17.4999 10.918 17.4804 11.0059 17.4804 12.4317C17.4804 13.6719 17.4853 13.711 17.5927 13.8673C17.6513 13.9551 17.7636 14.0772 17.8369 14.1309C17.9736 14.2335 18.0273 14.2335 20.3173 14.2481L22.6562 14.2628V15.3272C22.6562 16.7335 22.7148 16.6505 21.748 16.6505H21.04L20.7861 16.4503C20.2734 16.0401 19.6142 15.8594 19.0136 15.9571C18.6328 16.0206 18.1445 16.2403 17.8515 16.4796L17.6415 16.6505H16.8261H16.0156V13.0616V9.47272H17.8906C18.9208 9.47272 19.7997 9.48737 19.8437 9.50202ZM21.7285 12.3194C22.0605 12.8321 22.3632 13.3057 22.4023 13.3643L22.4706 13.4766H20.3662H18.2617V12.4268V11.377H19.6923H21.1181L21.7285 12.3194ZM15.2343 15.8448V16.6505H13.0663H10.8935L10.5761 16.4112C9.62885 15.6934 8.38861 15.7716 7.55854 16.6016L7.27533 16.8848L6.99213 16.6114C6.64545 16.2696 6.289 16.0841 5.77631 15.9815C5.41986 15.9034 5.35639 15.9034 4.99506 15.9766C4.55561 16.0645 4.17963 16.2354 3.87201 16.4844L3.67182 16.6505H3.11029C2.55854 16.6505 2.54389 16.6456 2.44623 16.5235C2.35346 16.4063 2.34369 16.3282 2.34369 15.7178V15.0391H8.789H15.2343V15.8448ZM6.02533 16.8653C6.54779 17.1192 6.85053 17.6026 6.85541 18.1934C6.85541 18.4864 6.83588 18.5841 6.69916 18.8624C6.43061 19.4044 5.98139 19.6925 5.39545 19.6973C4.79486 19.7022 4.31147 19.4092 4.04779 18.8721C3.53998 17.837 4.32123 16.6407 5.45893 16.7188C5.65424 16.7286 5.85443 16.7823 6.02533 16.8653ZM9.83393 16.8653C10.3417 17.1143 10.6542 17.627 10.6494 18.213C10.6494 18.8184 10.3613 19.2774 9.82416 19.5411C9.54584 19.6778 9.44818 19.7022 9.15521 19.6973C7.98822 19.6876 7.27533 18.3546 7.92475 17.3975C8.36908 16.7481 9.15033 16.5284 9.83393 16.8653ZM19.9902 16.8653C20.6396 17.1827 20.9716 17.9102 20.7763 18.5841C20.5761 19.2725 20.0244 19.7022 19.3359 19.7022C19.0722 19.7022 18.9599 19.6729 18.6913 19.5411C17.8369 19.1212 17.5927 18.086 18.164 17.2852C18.5497 16.7432 19.3603 16.5577 19.9902 16.8653Z" stroke="white" stroke-width="0.2" mask="url(#path-1-outside-1_73_83)"></path>
  </svg>